HIERARCHY
ROOT Hips
{
	OFFSET 0.000000 0.000000 0.000000
	CHANNELS 6 Xposition Yposition Zposition Zrotation Yrotation Xrotation 
	JOINT LHipJoint
	{
		OFFSET 0.000000 0.000000 0.000000
		CHANNELS 3 Zrotation Yrotation Xrotation
		JOINT LeftUpLeg
		{
			OFFSET 1.363060 -1.794630 0.839290
			CHANNELS 3 Zrotation Yrotation Xrotation
			JOINT LeftLeg
			{
				OFFSET 2.448110 -6.726130 0.000000
				CHANNELS 3 Zrotation Yrotation Xrotation
				JOINT LeftFoot
				{
					OFFSET 2.562200 -7.039590 0.000000
					CHANNELS 3 Zrotation Yrotation Xrotation
					JOINT LeftToeBase
					{
						OFFSET 0.157640 -0.433110 2.322550
						CHANNELS 3 Zrotation Yrotation Xrotation
						End Site
						{
							OFFSET 0.000000 0.000000 0.000000
						}
					}
				}
			}
		}
	}
	JOINT RHipJoint
	{
		OFFSET 0.000000 0.000000 0.000000
		CHANNELS 3 Zrotation Yrotation Xrotation
		JOINT RightUpLeg
		{
			OFFSET -1.305520 -1.794630 0.839290
			CHANNELS 3 Zrotation Yrotation Xrotation
			JOINT RightLeg
			{
				OFFSET -2.542530 -6.985550 0.000000
				CHANNELS 3 Zrotation Yrotation Xrotation
				JOINT RightFoot
				{
					OFFSET -2.568260 -7.056230 0.000000
					CHANNELS 3 Zrotation Yrotation Xrotation
					JOINT RightToeBase
					{
						OFFSET -0.164730 -0.452590 2.363150
						CHANNELS 3 Zrotation Yrotation Xrotation
						End Site
						{
							OFFSET 0.000000 0.000000 0.000000
						}
					}
				}
			}
		}
	}
	JOINT LowerBack
	{
		OFFSET 0.000000 0.000000 0.000000
		CHANNELS 3 Zrotation Yrotation Xrotation
		JOINT Spine
		{
			OFFSET 0.028270 2.035590 -0.193380
			CHANNELS 3 Zrotation Yrotation Xrotation
			JOINT Spine1
			{
				OFFSET 0.056720 2.048850 -0.042750
				CHANNELS 3 Zrotation Yrotation Xrotation
				JOINT Neck
				{
					OFFSET 0.000000 0.000000 0.000000
					CHANNELS 3 Zrotation Yrotation Xrotation
					JOINT Neck1
					{
						OFFSET -0.054170 1.746240 0.172020
						CHANNELS 3 Zrotation Yrotation Xrotation
						JOINT Head
						{
							OFFSET 0.104070 1.761360 -0.123970
							CHANNELS 3 Zrotation Yrotation Xrotation
							End Site
							{
								OFFSET 0.000000 0.000000 0.000000
							}
						}
					}
				}
				JOINT LeftShoulder
				{
					OFFSET 0.000000 0.000000 0.000000
					CHANNELS 3 Zrotation Yrotation Xrotation
					JOINT LeftArm
					{
						OFFSET 3.362410 1.200890 -0.311210
						CHANNELS 3 Zrotation Yrotation Xrotation
						JOINT LeftForeArm
						{
							OFFSET 4.983000 -0.000000 -0.000000
							CHANNELS 3 Zrotation Yrotation Xrotation
							JOINT LeftHand
							{
								OFFSET 3.483560 -0.000000 -0.000000
								CHANNELS 3 Zrotation Yrotation Xrotation
								JOINT LeftFingerBase
								{
									OFFSET 0.000000 0.000000 0.000000
									CHANNELS 3 Zrotation Yrotation Xrotation
									JOINT LeftHandIndex1
									{
										OFFSET 0.715260 -0.000000 -0.000000
										CHANNELS 3 Zrotation Yrotation Xrotation
										End Site
										{
											OFFSET 0.000000 0.000000 0.000000
										}
									}
								}
								JOINT LThumb
								{
									OFFSET 0.000000 0.000000 0.000000
									CHANNELS 3 Zrotation Yrotation Xrotation
									End Site
									{
										OFFSET 0.000000 0.000000 0.000000
									}
								}
							}
						}
					}
				}
				JOINT RightShoulder
				{
					OFFSET 0.000000 0.000000 0.000000
					CHANNELS 3 Zrotation Yrotation Xrotation
					JOINT RightArm
					{
						OFFSET -3.136600 1.374050 -0.404650
						CHANNELS 3 Zrotation Yrotation Xrotation
						JOINT RightForeArm
						{
							OFFSET -5.241900 -0.000000 -0.000000
							CHANNELS 3 Zrotation Yrotation Xrotation
							JOINT RightHand
							{
								OFFSET -3.444170 -0.000000 -0.000000
								CHANNELS 3 Zrotation Yrotation Xrotation
								JOINT RightFingerBase
								{
									OFFSET 0.000000 0.000000 0.000000
									CHANNELS 3 Zrotation Yrotation Xrotation
									JOINT RightHandIndex1
									{
										OFFSET -0.622530 -0.000000 -0.000000
										CHANNELS 3 Zrotation Yrotation Xrotation
										End Site
										{
											OFFSET 0.000000 0.000000 0.000000
										}
									}
								}
								JOINT RThumb
								{
									OFFSET 0.000000 0.000000 0.000000
									CHANNELS 3 Zrotation Yrotation Xrotation
									End Site
									{
										OFFSET 0.000000 0.000000 0.000000
									}
								}
							}
						}
					}
				}
			}
		}
	}
}
MOTION
Frames: 9
Frame Time: 0.008333
3.316186 17.210074 1.139671 -178.338276 -71.554019 -171.232174 -11.805428 1.841291 -1.646811 -4.975003 28.136061 -12.673936 -2.923649 -1.207890 -1.064076 0.982676 8.256795 -0.057152 1.091100 0.000000 -35.751500 9.309638 -1.943431 4.057070 0.769317 3.544015 -11.184134 2.624820 1.473031 -4.329377 0.568182 2.721390 4.340474 0.021500 -0.000000 -43.709400 1.432823 -0.005838 -3.746827 -0.434039 -0.222869 -3.624970 -6.627055 0.027498 -1.182538 7.500911 -5.715593 -0.228878 -4.306849 -0.394808 1.989093 0.000000 0.000000 0.000000 14.253664 8.449331 -2.432307 -87.620442 -16.191354 17.967576 -179.448073 -48.740185 179.954991 2.191478 -6.438845 -0.134690 0.093528 1.144745 -0.000000 0.000000 0.000000 0.000000 0.000000 0.000000 0.000000 0.826841 -2.922973 -4.259340 95.314275 25.945722 41.140277 -179.082852 54.450617 179.849812 -10.368118 14.779848 -1.496030 0.234388 -1.259525 -0.000000 0.000000 0.000000 0.000000 0.000000 0.000000 0.000000 
3.319383 17.212123 1.143891 -178.292062 -71.294643 -171.291607 -11.817169 1.851353 -1.658592 -4.976543 28.290448 -12.710135 -2.927821 -1.204902 -1.000662 0.993880 8.342091 -0.079358 1.097301 -0.000000 -35.710500 9.293584 -1.965708 4.134702 0.734221 3.786628 -11.100848 2.631030 1.495920 -4.650995 0.586546 2.763194 4.618464 0.032300 -0.000001 -43.664700 1.536891 0.018915 -3.816235 -0.443892 -0.212960 -3.652077 -6.707241 0.038698 -1.265943 7.509686 -5.703086 -0.061066 -4.296813 -0.395856 2.036906 0.000000 0.000000 0.000000 14.639917 8.190362 -2.605187 -87.021990 -17.328019 16.867177 -179.461116 -49.336655 179.957311 2.114918 -5.948218 -0.120391 0.098052 1.120084 -0.000000 0.000000 0.000000 0.000000 0.000000 0.000000 0.000000 0.932525 -2.990914 -4.189845 95.309558 25.974424 41.396206 -179.026287 54.554658 179.848786 -10.384978 14.764758 -1.496136 0.230107 -1.255501 -0.000000 0.000000 0.000000 0.000000 0.000000 0.000000 0.000000 
3.324185 17.214440 1.148570 -178.270028 -71.059489 -171.355893 -11.831462 1.865254 -1.666243 -4.970945 28.437299 -12.712825 -2.930541 -1.203170 -0.963617 1.002369 8.416610 -0.075135 1.106300 0.000000 -35.678501 9.277770 -1.991407 4.207870 0.699663 4.004882 -11.003688 2.635847 1.515481 -4.948232 0.603464 2.795410 4.889061 0.041100 0.000000 -43.628100 1.664134 0.051692 -3.884232 -0.461267 -0.198068 -3.683428 -6.837362 0.057057 -1.376201 7.519687 -5.682114 0.168695 -4.282619 -0.397190 2.101809 0.000000 0.000000 0.000000 14.994519 7.851310 -2.815580 -86.115485 -18.946665 15.565061 -179.443840 -50.163791 179.959376 2.080018 -5.432762 -0.109076 0.097468 1.096459 -0.000000 0.000000 0.000000 0.000000 0.000000 0.000000 0.000000 1.062687 -3.073764 -4.104596 95.309237 25.972124 41.624119 -178.944522 54.677288 179.847506 -10.376640 14.737921 -1.490988 0.222213 -1.249805 -0.000000 0.000000 0.000000 0.000000 0.000000 0.000000 0.000000 
3.330681 17.217017 1.153534 -178.268833 -70.857216 -171.430728 -11.848279 1.882200 -1.669289 -4.953812 28.568141 -12.670255 -2.930287 -1.203326 -0.963057 1.008425 8.485093 -0.038540 1.119699 -0.000000 -35.654000 9.260955 -2.017899 4.272489 0.669755 4.204501 -10.964761 2.636479 1.518577 -5.048720 0.613326 2.810942 5.053390 0.045700 0.000000 -43.598600 1.812146 0.092595 -3.947104 -0.490588 -0.178381 -3.714095 -7.045368 0.083713 -1.495681 7.563193 -5.653780 0.446213 -4.257233 -0.398136 2.179674 0.000000 0.000000 0.000000 15.248912 7.503129 -3.056710 -84.813680 -21.226964 14.129856 -179.380691 -51.395101 179.961239 2.087941 -4.888107 -0.100140 0.090230 1.073641 -0.000000 0.000000 0.000000 0.000000 0.000000 0.000000 0.000000 1.240981 -3.163139 -4.010660 95.307052 25.926996 41.797150 -178.834734 54.793574 179.845899 -10.349629 14.699127 -1.481491 0.210968 -1.242462 -0.000000 0.000000 0.000000 0.000000 0.000000 0.000000 0.000000 
3.339238 17.219728 1.158744 -178.281744 -70.692620 -171.525780 -11.867328 1.901924 -1.667771 -4.921026 28.680037 -12.580940 -2.926548 -1.204564 -0.999070 1.011955 8.545142 0.029073 1.137000 -0.000001 -35.636100 9.242385 -2.040462 4.322032 0.652172 4.378816 -11.043121 2.632011 1.495610 -4.814257 0.613106 2.814594 5.032035 0.046501 -0.000000 -43.572901 1.975915 0.131595 -3.998538 -0.532947 -0.163564 -3.743193 -7.341094 0.108386 -1.625980 7.666834 -5.618224 0.764172 -4.216045 -0.398324 2.268735 0.000000 0.000000 0.000000 15.362533 7.119754 -3.298717 -83.028398 -24.204728 12.553189 -179.301800 -53.158262 179.962430 2.149605 -4.328863 -0.093586 0.077778 1.051116 -0.000000 0.000000 0.000000 0.000000 0.000000 0.000000 0.000000 1.489792 -3.238485 -3.910229 95.289221 25.840032 41.903410 -178.701142 54.890693 179.843859 -10.323607 14.653209 -1.471138 0.197685 -1.233890 -0.000000 0.000000 0.000000 0.000000 0.000000 0.000000 0.000000 
3.349928 17.222468 1.164136 -178.295499 -70.563848 -171.646698 -11.887954 1.925044 -1.663456 -4.871560 28.770815 -12.451131 -2.919500 -1.204710 -1.070352 1.013423 8.594533 0.124033 1.157400 0.000000 -35.624500 9.225517 -2.060534 4.356795 0.647431 4.509897 -11.069150 2.627419 1.474737 -4.613061 0.611003 2.799039 5.026781 0.043000 -0.000001 -43.551000 2.144503 0.155206 -4.035404 -0.588165 -0.166137 -3.769689 -7.721596 0.117111 -1.765473 7.856005 -5.573768 1.103183 -4.154841 -0.397330 2.363999 0.000000 0.000000 0.000000 15.307658 6.673015 -3.496229 -80.669971 -27.856598 10.805928 -179.259073 -55.586980 179.962306 2.283286 -3.777810 -0.089522 0.063211 1.028298 -0.000000 0.000000 0.000000 0.000000 0.000000 0.000000 0.000000 1.825668 -3.273219 -3.809024 95.239980 25.714149 41.935821 -178.552496 54.955097 179.841421 -10.315540 14.604933 -1.463017 0.183995 -1.224579 -0.000000 0.000000 0.000000 0.000000 0.000000 0.000000 0.000000 
3.362774 17.225149 1.169614 -178.296772 -70.472807 -171.798872 -11.908800 1.950924 -1.657117 -4.804758 28.833621 -12.287169 -2.908850 -1.202436 -1.177953 1.013449 8.633381 0.243348 1.180400 -0.000000 -35.617500 9.211224 -2.073031 4.370825 0.661721 4.587859 -11.048870 2.623710 1.456307 -4.437592 0.607212 2.765926 5.032153 0.035400 -0.000000 -43.534700 2.301792 0.147311 -4.050919 -0.654100 -0.200167 -3.789817 -8.167958 0.094066 -1.902237 8.149839 -5.526164 1.425980 -4.070738 -0.394657 2.455440 0.000000 0.000000 0.000000 15.070919 6.169045 -3.599934 -77.658719 -32.123508 8.846318 -179.310709 -58.831579 179.960045 2.522973 -3.260764 -0.088658 0.050434 1.004966 -0.000000 0.000000 0.000000 0.000000 0.000000 0.000000 0.000000 2.254972 -3.257899 -3.719642 95.147946 25.562511 41.902668 -178.401225 54.967852 179.838765 -10.339714 14.557652 -1.459714 0.171825 -1.214932 -0.000000 0.000000 0.000000 0.000000 0.000000 0.000000 0.000000 
3.377636 17.227659 1.175073 -178.269032 -70.425164 -171.984431 -11.927690 1.977742 -1.650444 -4.723900 28.863460 -12.106782 -2.895416 -1.196669 -1.317265 1.011954 8.655683 0.382160 1.204500 -0.000000 -35.614700 9.200733 -2.073079 4.359214 0.700604 4.605276 -10.997245 2.621663 1.440642 -4.277850 0.601456 2.714102 5.040244 0.023200 -0.000000 -43.527200 2.422206 0.094246 -4.039015 -0.725841 -0.275556 -3.804478 -8.634195 0.026309 -2.043575 8.551957 -5.472345 1.704783 -3.964131 -0.390184 2.535752 0.000000 0.000000 0.000000 14.710704 5.578005 -3.578799 -73.974957 -36.802065 6.549483 -179.507441 -63.008402 179.954838 2.908106 -2.806695 -0.091406 0.044894 0.981741 -0.000000 0.000000 0.000000 0.000000 0.000000 0.000000 0.000000 2.760257 -3.195295 -3.649892 94.998482 25.386361 41.811031 -178.256350 54.913059 179.836093 -10.403282 14.515502 -1.462713 0.162448 -1.205148 -0.000000 0.000000 0.000000 0.000000 0.000000 0.000000 0.000000 
3.394003 17.229983 1.180439 -178.194948 -70.429591 -172.200349 -11.942356 2.002861 -1.645246 -4.633877 28.852648 -11.928661 -2.880137 -1.187389 -1.485598 1.008796 8.656186 0.535890 1.228201 0.000000 -35.615900 9.195542 -2.057139 4.317463 0.768327 4.554361 -10.933517 2.621795 1.427638 -4.122096 0.593421 2.643261 5.043068 0.006000 0.000000 -43.534199 2.479478 -0.010815 -3.993045 -0.796676 -0.394790 -3.816502 -9.063906 -0.091948 -2.203016 9.053050 -5.412044 1.916707 -3.838844 -0.384053 2.598857 0.000000 0.000000 0.000000 14.328344 4.905798 -3.447682 -69.688310 -41.631850 3.782678 -179.831585 -68.230227 179.946098 3.480623 -2.429038 -0.098373 0.049927 0.960083 -0.000000 0.000000 0.000000 0.000000 0.000000 0.000000 0.000000 3.312128 -3.115584 -3.604624 94.783306 25.185175 41.678619 -178.125548 54.778982 179.833652 -10.506475 14.480461 -1.472301 0.156659 -1.195168 -0.000000 0.000000 0.000000 0.000000 0.000000 0.000000 0.000000 
